<mxfile host="app.diagrams.net" modified="2023-07-20T15:33:19.204Z" agent="Mozilla/5.0 (Windows NT 10.0; Win64; x64) AppleWebKit/537.36 (KHTML, like Gecko) Chrome/114.0.0.0 Safari/537.36" version="21.5.2" etag="6cv4IaWzrrjX65LZxznK" type="github">
  <diagram name="Page-1" id="WNhAprQlJ0uAVfsy5RSd">
    <mxGraphModel>
      <root>
        <mxCell id="0" />
        <mxCell id="1" parent="0" />
      </root>
    </mxGraphModel>
  </diagram>
</mxfile>
